%
M48
M72
T01C0.03150
T02C0.03200
T03C0.03346
T04C0.03543
T05C0.03937
%
T01
X27833Y98030
X27833Y108030
X27833Y118030
X27833Y128030
X27833Y138030
X27833Y148030
X27833Y158030
X37833Y170530
X42833Y180530
X47833Y170530
X57833Y158030
X57833Y148030
X57833Y138030
X57833Y128030
X57833Y118030
X57833Y108030
X57833Y98030
X70333Y138030
X70333Y148030
X70333Y158030
X70333Y168030
X70333Y178030
X42833Y205530
T02
X47833Y68030
X37833Y68030
T03
X27833Y83030
X15333Y128030
X15333Y168030
X67833Y83030
T04
X22833Y30530
X22833Y40530
X22833Y50530
T05
X32833Y10530
X42833Y10530
X52833Y10530
X52833Y223530
X42833Y223530
X32833Y223530
M30
